<svg width="448" height="402" viewBox="0 0 448 402" fill="none" xmlns="http://www.w3.org/2000/svg">
<g clip-path="url(#clip0_5_99)">
<path d="M153.31 61.22C150.11 52.14 165.54 41.34 188.17 31.87C209.39 22.98 230.32 20.46 234.79 30.57C239.26 40.68 207.75 76.25 202.42 79.45C209.69 75.08 244.78 67.16 262.86 83.31C279.13 97.84 272.18 116.92 255.3 131.91C238.42 146.9 207.15 167.09 189.71 154.56C174.86 143.89 185.02 124.63 210.38 117.18C230.46 111.27 246.67 116.1 246.67 116.1C246.67 116.1 249.72 98.27 235.93 91.83C223.78 86.16 192.1 96.48 183.16 109.48C174.22 122.48 158.51 130.9 156.48 115.24C154.45 99.58 177.68 87.5 186.79 78.93C195.9 70.37 203.75 56.73 203.75 56.73C203.75 56.73 160.14 80.58 153.32 61.22H153.31ZM239.05 126.88C239.05 126.88 201.75 125.62 204.89 138.93C207.18 148.67 230.72 137.52 239.05 126.88Z" fill="white"/>
<path d="M202.89 158.99C197.67 158.99 193.17 157.64 189.42 154.95C184 151.05 181.55 145.75 182.53 140.01C184.18 130.3 195.06 121.14 210.24 116.68C228.16 111.41 243.2 114.68 246.25 115.45C246.61 112.44 247.66 97.84 235.72 92.26C223.51 86.56 192.32 97.02 183.57 109.74C178 117.84 168.53 125.59 161.94 124C159.66 123.45 156.78 121.49 155.98 115.27C154.4 103.07 167.52 93.19 178.06 85.25C181.26 82.84 184.28 80.56 186.44 78.53C193.62 71.79 200.08 61.75 202.4 57.97C199.71 59.35 193.87 62.21 187.17 64.69C174.77 69.27 165.45 70.43 159.47 68.14C156.22 66.9 153.99 64.62 152.85 61.36C148.77 49.78 173.11 37.61 187.99 31.38C208.03 22.99 230.42 19.41 235.26 30.34C239.32 39.51 214.91 68.56 205.55 77.45C216.9 73.19 246.58 68.06 263.21 82.91C269.45 88.49 272.62 94.95 272.61 102.13C272.6 111.86 266.57 122.56 255.65 132.26C250.75 136.61 237.76 147.43 222.93 153.99C215.4 157.32 208.71 158.99 202.91 158.99H202.89ZM230.85 114.74C225.05 114.74 218.05 115.43 210.52 117.64C195.7 122 185.1 130.85 183.51 140.18C182.59 145.6 184.83 150.42 190 154.14C207.23 166.53 238.94 145.75 254.96 131.53C265.67 122.02 271.57 111.59 271.58 102.15C271.58 95.27 268.54 89.06 262.52 83.68C244.46 67.56 209.24 75.93 202.67 79.88L202.16 79.02C207.1 76.06 238.63 40.49 234.33 30.78C231.04 23.35 215.56 20.95 188.36 32.34C163.6 42.71 151 53.18 153.78 61.07C154.82 64.03 156.86 66.11 159.82 67.25C173.58 72.52 203.2 56.47 203.5 56.31L205.06 55.46L204.17 57C204.09 57.14 196.18 70.8 187.12 79.31C184.92 81.38 181.88 83.67 178.65 86.1C168.31 93.88 155.45 103.57 156.96 115.19C157.55 119.73 159.3 122.38 162.17 123.07C167.57 124.38 176.41 118.41 182.74 109.21C191.68 96.2 223.62 85.54 236.14 91.39C250.12 97.92 247.19 116.01 247.16 116.2L247.07 116.76L246.53 116.6C246.43 116.57 240.23 114.78 230.86 114.78L230.85 114.74ZM210.71 143.17C209.94 143.17 209.21 143.1 208.54 142.95C206.32 142.46 204.88 141.11 204.39 139.04C203.89 136.94 204.32 135.04 205.65 133.42C212.09 125.56 237.96 126.35 239.05 126.38L240.03 126.41L239.42 127.18C233.51 134.72 219.19 143.16 210.69 143.16L210.71 143.17ZM236.66 127.35C230.03 127.35 211.47 127.91 206.44 134.05C205.3 135.44 204.95 137 205.38 138.81C205.78 140.5 206.92 141.57 208.77 141.97C215.53 143.46 230.95 135.65 238.02 127.35C237.65 127.35 237.2 127.35 236.67 127.35H236.66Z" fill="white"/>
<path d="M240.74 152.06C239.81 148.34 246.5 148.22 259.93 147.26C268.6 146.64 280.46 143 282 149.18C283.54 155.36 272.17 161.5 263.77 168.37C253.22 177.01 254.05 188.45 261.54 193.44C268.56 198.11 282 197.15 287.75 180.84C292.71 166.79 297.35 162.61 302.14 163.57C306.93 164.53 305.02 170.29 305.02 177.96C305.02 185.63 305.98 191.39 307.9 194.27C309.82 197.15 306.94 200.03 301.18 195.23C294.38 189.57 295.42 182.76 295.42 182.76C295.42 182.76 292.54 205.79 271.43 207.71C256.14 209.1 238.81 198.11 241.68 179.88C243.65 167.41 253.19 162.61 257.99 158.77C252.23 159.73 241.68 155.89 240.72 152.05L240.74 152.06Z" fill="white"/>
<path d="M268.76 208.33C260.51 208.33 252.37 204.99 247.03 199.28C243.56 195.57 239.73 189.18 241.21 179.81C242.9 169.1 249.98 164 255.15 160.28C255.56 159.99 255.96 159.7 256.34 159.42C250.26 159.53 241.23 156.04 240.26 152.18C240.05 151.36 240.17 150.64 240.6 150.05C242.09 148 247.27 147.64 256.66 146.99L259.9 146.76C261.92 146.62 264.16 146.3 266.33 145.99C273.64 144.96 281.2 143.89 282.49 149.05C283.77 154.21 277.28 158.95 270.4 163.97C268.28 165.52 266.09 167.12 264.09 168.75C258.87 173.02 256.14 178.24 256.4 183.44C256.59 187.36 258.57 190.85 261.83 193.01C265.47 195.43 270.47 196.03 274.86 194.56C278.75 193.26 284.07 189.8 287.29 180.66C291.92 167.54 296.67 161.95 302.25 163.06C306.32 163.87 306.06 167.81 305.74 172.79C305.64 174.34 305.53 176.11 305.53 177.95C305.53 185.7 306.5 191.24 308.32 193.98C309.23 195.35 309.22 196.83 308.29 197.66C307.14 198.69 304.59 198.69 300.87 195.6C297.09 192.45 295.65 188.97 295.14 186.42C293.3 193.08 287.58 206.73 271.49 208.19C270.58 208.27 269.67 208.31 268.76 208.31V208.33ZM259.82 157.96L258.32 159.16C257.55 159.77 256.67 160.41 255.73 161.09C250.7 164.71 243.82 169.66 242.19 179.96C240.77 188.93 244.43 195.05 247.76 198.59C253.4 204.62 262.69 208 271.4 207.21C291.36 205.4 294.75 183.99 294.93 182.75C294.93 182.72 294.93 182.69 294.93 182.68L295.92 182.82C295.92 182.82 295.92 182.83 295.92 182.85C295.87 183.24 295.19 189.59 301.51 194.85C304.53 197.37 306.76 197.72 307.62 196.94C308.17 196.45 308.11 195.49 307.49 194.55C305.55 191.64 304.53 185.91 304.53 177.96C304.53 176.09 304.64 174.31 304.75 172.74C305.09 167.46 305.12 164.67 302.06 164.06C297.06 163.06 292.67 168.45 288.24 181.01C284.88 190.52 279.28 194.16 275.18 195.52C270.5 197.08 265.17 196.44 261.28 193.85C257.76 191.51 255.62 187.73 255.41 183.49C255.14 177.96 258 172.45 263.47 167.97C265.49 166.31 267.7 164.71 269.83 163.15C276.43 158.34 282.66 153.79 281.54 149.28C280.48 144.99 273.37 145.99 266.49 146.96C264.3 147.27 262.04 147.59 259.99 147.73L256.75 147.96C248.25 148.55 242.64 148.93 241.43 150.61C241.18 150.96 241.12 151.38 241.25 151.91C242.11 155.35 252.26 159.2 257.95 158.25L259.84 157.93L259.82 157.96Z" fill="white"/>
<path d="M312.98 182.95C312.14 177.91 311.73 170.39 313.8 167.49C315.87 164.59 322.49 169.41 320.57 177.84C318.64 186.27 313.95 188.75 312.98 182.95Z" fill="white"/>
<path d="M315.25 186.6C315.25 186.6 315.21 186.6 315.19 186.6C314.4 186.58 313 186.08 312.49 183.03C311.58 177.59 311.27 170.17 313.4 167.19C314.17 166.11 315.54 165.84 316.98 166.48C319.92 167.8 322.35 172.27 321.06 177.94C319.89 183.05 317.51 186.6 315.25 186.6ZM315.46 167.14C315.02 167.14 314.55 167.29 314.21 167.78C312.39 170.34 312.52 177.2 313.47 182.87C313.76 184.58 314.39 185.58 315.21 185.6C315.22 185.6 315.23 185.6 315.24 185.6C316.72 185.6 318.9 182.86 320.07 177.72C321.32 172.25 318.77 168.39 316.56 167.4C316.32 167.29 315.9 167.14 315.45 167.14H315.46Z" fill="white"/>
<path d="M324.16 183.64C323.32 178.6 322.91 171.08 324.98 168.18C327.05 165.28 332.57 168.18 330.64 176.6C328.71 185.03 324.43 185.3 324.15 183.64H324.16Z" fill="white"/>
<path d="M325.26 184.94C325.26 184.94 325.22 184.94 325.2 184.94C324.39 184.92 323.78 184.44 323.66 183.72C322.75 178.28 322.45 170.86 324.57 167.88C325.46 166.63 326.96 166.24 328.39 166.88C330.64 167.89 332.36 171.32 331.13 176.7C329.64 183.21 326.77 184.93 325.26 184.93V184.94ZM324.65 183.55C324.71 183.88 325.07 183.93 325.23 183.93C326.34 183.99 328.79 182.45 330.16 176.47C331.26 171.64 329.86 168.63 327.99 167.78C327 167.34 326.01 167.59 325.39 168.45C323.57 171 323.71 177.87 324.65 183.54V183.55Z" fill="white"/>
<path d="M191.65 205.32C189.03 208.62 184.64 227.14 193 235.64C201.36 244.14 214.08 238.25 215.21 232.39C216.07 227.88 214.75 225.78 221.1 219.2C222.65 217.59 227.86 212.58 229.28 211.51C228.24 219.26 230.61 229.65 237.11 228.33C243.62 227 244.69 213.93 239.1 204.25C235.94 198.77 230.08 196.86 228.2 197.54C223.49 199.23 229.12 207.07 225.66 211.2C216.73 221.84 217.47 226.88 211.49 227.97C205.51 229.06 199.71 224.75 200.18 217.15C200.64 209.55 197.53 197.91 191.65 205.34V205.32Z" fill="white"/>
<path d="M202.97 240.41C199.12 240.41 195.5 238.89 192.65 235.99C184.02 227.21 188.75 208.17 191.26 205.01C192.98 202.84 194.64 202.03 196.19 202.63C199.61 203.94 201 211.92 200.68 217.17C200.47 220.56 201.56 223.48 203.74 225.42C205.78 227.23 208.58 227.98 211.41 227.47C214.71 226.87 215.8 225.03 217.98 221.35C219.5 218.79 221.58 215.29 225.29 210.87C226.79 209.08 226.41 206.46 226.04 203.92C225.62 201.05 225.19 198.08 228.04 197.06C230.18 196.29 236.31 198.4 239.55 204C243.35 210.57 244.35 219.23 241.93 224.6C240.87 226.95 239.25 228.41 237.23 228.82C235.38 229.2 233.74 228.73 232.36 227.44C229.27 224.55 228.21 218.08 228.67 212.69C226.67 214.45 222.85 218.12 221.48 219.55C216.59 224.61 216.36 226.92 216.07 229.84C215.99 230.66 215.9 231.51 215.72 232.49C215.15 235.47 211.79 238.44 207.55 239.73C206.01 240.2 204.48 240.42 202.99 240.42L202.97 240.41ZM195.2 203.44C194.26 203.44 193.2 204.17 192.04 205.63C189.64 208.66 185.1 226.89 193.36 235.29C198.61 240.63 204.82 239.5 207.24 238.76C211.14 237.58 214.21 234.92 214.71 232.29C214.89 231.36 214.97 230.53 215.05 229.73C215.16 228.63 215.26 227.59 215.6 226.46C214.57 227.46 213.34 228.13 211.57 228.45C208.44 229.02 205.33 228.18 203.06 226.16C200.65 224.02 199.45 220.8 199.67 217.11C200.01 211.54 198.44 204.57 195.82 203.57C195.61 203.49 195.4 203.45 195.18 203.45L195.2 203.44ZM229.94 210.39L229.78 211.57C229.08 216.78 229.98 223.85 233.03 226.7C234.16 227.76 235.5 228.14 237.02 227.83C238.71 227.49 240.09 226.22 241.01 224.18C243.3 219.08 242.32 210.8 238.68 204.49C235.65 199.24 230.04 197.4 228.38 198C226.4 198.71 226.57 200.66 227.03 203.77C227.41 206.4 227.85 209.37 226.06 211.51C223.6 214.44 221.86 216.97 220.53 219.08C220.6 219 220.68 218.93 220.75 218.85C222.27 217.28 227.51 212.22 228.99 211.11L229.94 210.39Z" fill="white"/>
<path d="M111.84 195.56C110.96 195.56 110.1 195.09 109.65 194.26L109.24 193.52C101.11 178.99 96.12 163.42 94.4 147.25C92.62 130.47 94.4 113.84 99.71 97.51C101.15 92.31 102.92 87.15 104.99 82.06C119.91 45.48 149.03 17.96 184.89 6.54C223.96 -5.9 256.86 1.72 277.58 10.31C300.03 19.61 313.08 31.71 313.62 32.22C314.58 33.12 314.68 34.6 313.85 35.62C313.02 36.64 311.55 36.85 310.48 36.1C284.43 17.92 249.47 8.11 216.97 9.86C190.16 11.3 152.43 21.09 124.9 59.55C115.63 72.5 108.8 85.72 104.45 99.13C95.78 130.61 99.06 163.68 114.04 191.91C114.68 193.12 114.23 194.63 113.02 195.28C112.64 195.48 112.24 195.58 111.84 195.58V195.56Z" fill="white"/>
<path d="M232.69 266.64C202.42 266.64 177.42 256.91 168.36 251.71C167.25 251.07 166.79 249.68 167.31 248.51C167.82 247.36 169.14 246.76 170.35 247.13C239.3 267.9 286.7 257.54 324.02 213.54C364.68 165.6 350.7 97.27 350.56 96.59C350.29 95.32 351.04 94.05 352.28 93.68C353.52 93.3 354.85 93.94 355.33 95.14C362.8 113.83 363.27 178.67 330.19 219.49C305.38 250.11 271.96 266.41 233.53 266.64C233.25 266.64 232.97 266.64 232.69 266.64Z" fill="white"/>
<path d="M336.93 72.69C330.19 72.1 325.2 66.16 325.78 59.42C326.37 52.68 332.31 47.69 339.05 48.27C345.79 48.86 350.78 54.8 350.2 61.54C349.62 68.28 343.67 73.27 336.93 72.69ZM338.22 66.66L340.78 63.8L344.04 61.77C344.49 61.39 344.55 60.71 344.17 60.26L341.31 57.7L339.28 54.44C338.9 53.99 338.22 53.93 337.77 54.31L335.21 57.17L331.95 59.2C331.5 59.58 331.44 60.26 331.82 60.71L334.68 63.27L336.71 66.53C337.09 66.98 337.77 67.04 338.22 66.66Z" fill="white"/>
<path d="M136.12 234.9C129.38 234.31 124.39 228.37 124.97 221.63C125.56 214.89 131.5 209.9 138.24 210.48C144.98 211.07 149.97 217.01 149.39 223.75C148.8 230.49 142.86 235.48 136.12 234.9ZM137.41 228.87L139.97 226.01L143.23 223.98C143.68 223.6 143.74 222.92 143.36 222.47L140.5 219.91L138.47 216.65C138.09 216.2 137.41 216.14 136.96 216.52L134.4 219.38L131.14 221.41C130.69 221.79 130.63 222.47 131.01 222.92L133.87 225.48L135.9 228.74C136.28 229.19 136.96 229.25 137.41 228.87Z" fill="white"/>
<path d="M142.84 317.83L151.65 306.37H160.57L149.55 319.53L161.6 334.16H152.24L142.84 322.11V334.16H135.62V306.37H142.84V317.83Z" fill="white"/>
<path d="M186.25 329.33H175.93L174.27 334.16H166.57L177.15 306.37H185.04L195.62 334.16H187.92L186.26 329.33H186.25ZM184.33 323.84L181.09 314.59L177.85 323.84H184.34H184.33Z" fill="white"/>
<path d="M203.2 334.16V306.37H210.42L223.76 323.36V306.37H230.95V334.16H223.76L210.42 317.17V334.16H203.2Z" fill="white"/>
<path d="M256.45 313.49C255.66 312.85 254.88 312.38 254.09 312.07C253.3 311.76 252.54 311.61 251.81 311.61C250.88 311.61 250.11 311.83 249.52 312.27C248.93 312.71 248.64 313.29 248.64 314C248.64 314.49 248.79 314.9 249.08 315.22C249.37 315.54 249.76 315.82 250.24 316.05C250.72 316.28 251.26 316.49 251.86 316.66C252.46 316.83 253.06 317.02 253.65 317.21C256.01 318 257.73 319.05 258.83 320.36C259.92 321.67 260.47 323.39 260.47 325.5C260.47 326.93 260.23 328.21 259.75 329.37C259.27 330.53 258.57 331.51 257.65 332.34C256.73 333.16 255.6 333.8 254.26 334.26C252.92 334.72 251.4 334.94 249.71 334.94C246.2 334.94 242.94 333.9 239.94 331.81L243.04 325.99C244.12 326.95 245.19 327.66 246.25 328.13C247.31 328.6 248.35 328.83 249.38 328.83C250.56 328.83 251.44 328.56 252.01 328.02C252.59 327.48 252.88 326.87 252.88 326.18C252.88 325.76 252.81 325.4 252.66 325.09C252.51 324.78 252.27 324.5 251.92 324.24C251.58 323.98 251.13 323.74 250.58 323.52C250.03 323.3 249.36 323.05 248.57 322.78C247.64 322.49 246.72 322.16 245.82 321.8C244.92 321.44 244.12 320.97 243.42 320.38C242.72 319.79 242.15 319.05 241.72 318.15C241.29 317.25 241.08 316.12 241.08 314.74C241.08 313.36 241.31 312.12 241.76 311C242.21 309.88 242.85 308.92 243.68 308.12C244.5 307.32 245.51 306.7 246.7 306.26C247.89 305.82 249.22 305.6 250.7 305.6C252.08 305.6 253.51 305.79 255.01 306.17C256.51 306.55 257.94 307.11 259.32 307.85L256.44 313.49H256.45Z" fill="white"/>
<path d="M286.44 329.33H276.12L274.46 334.16H266.76L277.34 306.37H285.23L295.81 334.16H288.11L286.45 329.33H286.44ZM284.52 323.84L281.28 314.59L278.04 323.84H284.53H284.52Z" fill="white"/>
<path d="M310.62 306.37V334.16H303.4V306.37H310.62Z" fill="white"/>
<path d="M32.39 400.16H19.78L10.12 385.18V400.16H0V361.21H15.76C17.93 361.21 19.82 361.53 21.44 362.17C23.06 362.81 24.39 363.68 25.44 364.78C26.49 365.88 27.28 367.16 27.82 368.6C28.35 370.05 28.62 371.6 28.62 373.25C28.62 376.21 27.9 378.62 26.48 380.46C25.05 382.3 22.94 383.55 20.15 384.21L32.39 400.17V400.16ZM10.12 378.62H12.03C14.03 378.62 15.56 378.21 16.63 377.38C17.7 376.55 18.23 375.36 18.23 373.81C18.23 372.26 17.7 371.07 16.63 370.25C15.56 369.43 14.03 369.01 12.03 369.01H10.12V378.62Z" fill="white"/>
<path d="M51.92 361.2V382.38C51.92 383.52 51.96 384.68 52.05 385.87C52.13 387.06 52.39 388.14 52.82 389.1C53.25 390.06 53.93 390.85 54.86 391.45C55.79 392.05 57.1 392.35 58.79 392.35C60.48 392.35 61.78 392.05 62.69 391.45C63.6 390.85 64.28 390.06 64.73 389.1C65.18 388.14 65.44 387.06 65.53 385.87C65.62 384.68 65.66 383.52 65.66 382.38V361.2H75.73V383.78C75.73 389.84 74.34 394.27 71.57 397.06C68.8 399.85 64.53 401.24 58.78 401.24C53.03 401.24 48.76 399.85 45.97 397.06C43.18 394.27 41.78 389.85 41.78 383.78V361.2H51.91H51.92Z" fill="white"/>
<path d="M89.07 361.2H104.16C107.74 361.2 110.46 362.06 112.32 363.78C114.18 365.5 115.11 367.98 115.11 371.22C115.11 373.18 114.76 374.81 114.05 376.1C113.34 377.39 112.27 378.48 110.82 379.38C112.27 379.66 113.5 380.08 114.51 380.65C115.52 381.22 116.35 381.92 116.99 382.74C117.63 383.57 118.08 384.5 118.36 385.53C118.63 386.56 118.77 387.67 118.77 388.84C118.77 390.67 118.45 392.28 117.81 393.7C117.17 395.11 116.28 396.3 115.12 397.26C113.97 398.22 112.56 398.95 110.91 399.43C109.26 399.91 107.4 400.15 105.33 400.15H89.06V361.2H89.07ZM99.2 376.49H101.06C104.23 376.49 105.81 375.23 105.81 372.72C105.81 370.21 104.23 368.95 101.06 368.95H99.2V376.49ZM99.2 392.3H101.42C103.97 392.3 105.79 391.97 106.9 391.32C108 390.67 108.55 389.61 108.55 388.17C108.55 386.73 108 385.67 106.9 385.02C105.8 384.37 103.97 384.04 101.42 384.04H99.2V392.31V392.3Z" fill="white"/>
<path d="M139.39 381.46L125.18 361.21H137.27L144.5 371.85L151.68 361.21H163.77L149.51 381.46V400.16H139.38V381.46H139.39Z" fill="white"/>
<path d="M182.63 377.27L194.98 361.2H207.48L192.03 379.64L208.92 400.15H195.8L182.63 383.26V400.15H172.5V361.2H182.63V377.27Z" fill="white"/>
<path d="M242.46 393.39H227.99L225.66 400.16H214.86L229.69 361.21H240.75L255.58 400.16H244.78L242.46 393.39ZM239.77 385.69L235.22 372.72L230.67 385.69H239.76H239.77Z" fill="white"/>
<path d="M275.31 361.2V400.15H265.18V361.2H275.31Z" fill="white"/>
<path d="M307.6 378.36H327.7C327.7 380.43 327.61 382.3 327.44 383.99C327.27 385.68 326.92 387.24 326.41 388.69C325.69 390.72 324.7 392.52 323.46 394.09C322.22 395.66 320.76 396.97 319.09 398.02C317.42 399.07 315.59 399.87 313.59 400.42C311.59 400.97 309.49 401.25 307.29 401.25C304.26 401.25 301.5 400.75 299 399.75C296.5 398.75 294.36 397.35 292.57 395.54C290.78 393.73 289.38 391.56 288.39 389.03C287.39 386.5 286.89 383.7 286.89 380.64C286.89 377.58 287.38 374.83 288.36 372.3C289.34 369.77 290.74 367.61 292.55 365.82C294.36 364.03 296.54 362.63 299.09 361.64C301.64 360.64 304.48 360.14 307.61 360.14C311.67 360.14 315.24 361.02 318.3 362.77C321.37 364.53 323.79 367.25 325.58 370.93L315.97 374.91C315.07 372.78 313.91 371.24 312.48 370.31C311.05 369.38 309.42 368.92 307.6 368.92C306.08 368.92 304.71 369.2 303.47 369.77C302.23 370.34 301.17 371.15 300.29 372.2C299.41 373.25 298.72 374.52 298.22 376C297.72 377.48 297.47 379.13 297.47 380.96C297.47 382.61 297.68 384.15 298.12 385.56C298.55 386.97 299.2 388.19 300.06 389.23C300.92 390.26 301.99 391.06 303.26 391.63C304.53 392.2 306.01 392.48 307.7 392.48C308.7 392.48 309.66 392.37 310.59 392.15C311.52 391.93 312.35 391.56 313.1 391.07C313.84 390.57 314.45 389.92 314.93 389.13C315.41 388.34 315.74 387.37 315.91 386.24H307.59V378.39L307.6 378.36Z" fill="white"/>
<path d="M349.4 361.2V400.15H339.27V361.2H349.4Z" fill="white"/>
<path d="M379.31 380.63C379.31 377.53 379.71 374.71 380.52 372.18C381.33 369.65 382.47 367.49 383.93 365.7C385.39 363.91 387.13 362.52 389.15 361.54C391.17 360.56 393.39 360.07 395.84 360.07C398.29 360.07 400.47 360.56 402.51 361.54C404.54 362.52 406.28 363.91 407.73 365.7C409.18 367.49 410.3 369.65 411.11 372.18C411.92 374.71 412.32 377.53 412.32 380.63C412.32 383.73 411.91 386.55 411.11 389.08C410.3 391.61 409.17 393.78 407.73 395.59C406.29 397.4 404.54 398.79 402.51 399.77C400.48 400.75 398.26 401.24 395.84 401.24C393.42 401.24 391.16 400.75 389.15 399.77C387.14 398.79 385.4 397.39 383.93 395.59C382.47 393.78 381.33 391.61 380.52 389.08C379.71 386.55 379.31 383.73 379.31 380.63ZM389.33 380.63C389.33 382.35 389.49 383.92 389.79 385.33C390.1 386.74 390.54 387.96 391.11 389C391.68 390.03 392.36 390.83 393.15 391.4C393.94 391.97 394.84 392.25 395.84 392.25C396.84 392.25 397.69 391.97 398.5 391.4C399.31 390.83 399.99 390.03 400.54 389C401.09 387.97 401.52 386.74 401.83 385.33C402.14 383.92 402.29 382.35 402.29 380.63C402.29 378.91 402.13 377.38 401.83 375.95C401.52 374.52 401.09 373.3 400.54 372.28C399.99 371.26 399.31 370.47 398.5 369.9C397.69 369.33 396.8 369.05 395.84 369.05C394.88 369.05 393.95 369.33 393.15 369.9C392.36 370.47 391.68 371.26 391.11 372.28C390.54 373.3 390.1 374.52 389.79 375.95C389.48 377.38 389.33 378.94 389.33 380.63Z" fill="white"/>
<path d="M425.86 379.6C421.8 377.91 419.76 375.05 419.76 371.02C419.76 369.37 420.09 367.88 420.74 366.55C421.39 365.22 422.3 364.08 423.45 363.11C424.6 362.15 426 361.41 427.63 360.89C429.26 360.37 431.07 360.12 433.03 360.12C434.99 360.12 436.79 360.38 438.43 360.89C440.06 361.41 441.46 362.15 442.61 363.11C443.76 364.07 444.67 365.22 445.32 366.55C445.97 367.88 446.3 369.37 446.3 371.02C446.3 372.05 446.2 372.98 445.99 373.78C445.78 374.59 445.43 375.33 444.93 376C444.43 376.67 443.78 377.3 442.97 377.89C442.16 378.48 441.15 379.04 439.95 379.59C445.25 381.66 447.91 385 447.91 389.61C447.91 391.26 447.54 392.8 446.8 394.21C446.06 395.62 445.03 396.84 443.7 397.88C442.37 398.91 440.81 399.72 439 400.31C437.19 400.89 435.2 401.19 433.03 401.19C430.86 401.19 428.97 400.91 427.17 400.34C425.36 399.77 423.79 398.97 422.44 397.94C421.1 396.91 420.05 395.69 419.29 394.27C418.53 392.86 418.15 391.31 418.15 389.62C418.15 384.9 420.72 381.56 425.85 379.6H425.86ZM428.39 388.38C428.39 389.03 428.51 389.65 428.75 390.24C428.99 390.83 429.32 391.33 429.73 391.76C430.14 392.19 430.63 392.54 431.2 392.79C431.77 393.05 432.38 393.18 433.03 393.18C433.65 393.18 434.24 393.05 434.81 392.79C435.38 392.53 435.88 392.19 436.31 391.76C436.74 391.33 437.08 390.83 437.32 390.26C437.56 389.69 437.68 389.08 437.68 388.43C437.68 387.12 437.22 386.01 436.31 385.1C435.4 384.19 434.3 383.73 433.03 383.73C431.76 383.73 430.62 384.19 429.72 385.1C428.82 386.01 428.38 387.11 428.38 388.38H428.39ZM428.75 371.12C428.75 372.33 429.16 373.35 429.99 374.19C430.82 375.03 431.83 375.46 433.04 375.46C433.66 375.46 434.23 375.34 434.75 375.1C435.27 374.86 435.71 374.54 436.09 374.14C436.47 373.74 436.77 373.29 436.99 372.77C437.21 372.25 437.33 371.72 437.33 371.17C437.33 370 436.92 368.99 436.09 368.15C435.26 367.31 434.25 366.88 433.04 366.88C431.83 366.88 430.82 367.29 429.99 368.12C429.16 368.95 428.75 369.95 428.75 371.12Z" fill="white"/>
</g>
<defs>
<clipPath id="clip0_5_99">
<rect width="447.92" height="401.24" fill="white"/>
</clipPath>
</defs>
</svg>
