<svg width="200" height="53" viewBox="0 0 200 53" fill="none" xmlns="http://www.w3.org/2000/svg">
<path d="M63.7553 15.355L66.4791 11.812H69.2368L65.8298 15.8806L69.5552 20.4036H66.6615L63.7553 16.6782V20.4036H61.5232V11.812H63.7553V15.355Z" fill="white"/>
<path d="M77.1761 18.9103H73.9855L73.4723 20.4036H71.0918L74.3627 11.812H76.802L80.0729 20.4036H77.6924L77.1792 18.9103H77.1761ZM76.5825 17.213L75.5808 14.3533L74.5791 17.213H76.5856H76.5825Z" fill="white"/>
<path d="M82.4163 20.4036V11.812H84.6484L88.7726 17.0646V11.812H90.9955V20.4036H88.7726L84.6484 15.1509V20.4036H82.4163Z" fill="white"/>
<path d="M98.8792 14.0132C98.6349 13.8153 98.3938 13.67 98.1495 13.5742C97.9053 13.4784 97.6703 13.432 97.4447 13.432C97.1571 13.432 96.9191 13.5 96.7367 13.636C96.5543 13.7721 96.4646 13.9514 96.4646 14.1709C96.4646 14.3224 96.511 14.4491 96.6006 14.5481C96.6903 14.647 96.8109 14.7336 96.9593 14.8047C97.1077 14.8758 97.2746 14.9407 97.4601 14.9933C97.6456 15.0458 97.8311 15.1046 98.0135 15.1633C98.7431 15.4075 99.2749 15.7322 99.615 16.1372C99.952 16.5422 100.122 17.0739 100.122 17.7262C100.122 18.1684 100.048 18.5641 99.8994 18.9227C99.751 19.2813 99.5346 19.5843 99.2502 19.8409C98.9657 20.0944 98.6164 20.2923 98.2021 20.4345C97.7878 20.5767 97.3179 20.6447 96.7954 20.6447C95.7103 20.6447 94.7024 20.3232 93.7749 19.6771L94.7333 17.8777C95.0672 18.1745 95.398 18.394 95.7257 18.5393C96.0534 18.6847 96.375 18.7558 96.6934 18.7558C97.0582 18.7558 97.3303 18.6723 97.5065 18.5053C97.6858 18.3384 97.7755 18.1498 97.7755 17.9365C97.7755 17.8066 97.7538 17.6953 97.7074 17.5995C97.6611 17.5037 97.5869 17.4171 97.4787 17.3367C97.3735 17.2563 97.2344 17.1821 97.0644 17.1141C96.8943 17.0461 96.6872 16.9688 96.443 16.8853C96.1555 16.7957 95.871 16.6936 95.5928 16.5823C95.3145 16.471 95.0672 16.3257 94.8508 16.1433C94.6344 15.9609 94.4581 15.7322 94.3252 15.4539C94.1923 15.1757 94.1273 14.8263 94.1273 14.3997C94.1273 13.973 94.1985 13.5897 94.3376 13.2434C94.4767 12.8971 94.6746 12.6003 94.9312 12.353C95.1847 12.1057 95.4969 11.914 95.8648 11.778C96.2327 11.6419 96.6439 11.5739 97.1015 11.5739C97.5281 11.5739 97.9702 11.6327 98.434 11.7502C98.8977 11.8676 99.3398 12.0408 99.7665 12.2695L98.8761 14.0132H98.8792Z" fill="white"/>
<path d="M108.151 18.9103H104.96L104.447 20.4036H102.067L105.338 11.812H107.777L111.048 20.4036H108.667L108.154 18.9103H108.151ZM107.557 17.213L106.556 14.3533L105.554 17.213H107.56H107.557Z" fill="white"/>
<path d="M115.627 11.812V20.4036H113.395V11.812H115.627Z" fill="white"/>
<path d="M71.5369 40.8083H67.6384L64.6519 36.177V40.8083H61.5232V28.7664H66.3956C67.0665 28.7664 67.6508 28.8654 68.1516 29.0632C68.6525 29.2611 69.0637 29.5301 69.3883 29.8701C69.7129 30.2102 69.9571 30.6059 70.1241 31.0511C70.2879 31.4994 70.3714 31.9786 70.3714 32.4887C70.3714 33.4039 70.1488 34.1489 69.7098 34.7178C69.2677 35.2867 68.6154 35.6731 67.7528 35.8771L71.5369 40.8114V40.8083ZM64.6519 34.1489H65.2424C65.8607 34.1489 66.3338 34.0222 66.6646 33.7656C66.9954 33.509 67.1592 33.1411 67.1592 32.6619C67.1592 32.1827 66.9954 31.8148 66.6646 31.5613C66.3338 31.3077 65.8607 31.1779 65.2424 31.1779H64.6519V34.1489Z" fill="white"/>
<path d="M77.5751 28.7633V35.3114C77.5751 35.6638 77.5875 36.0225 77.6153 36.3904C77.64 36.7583 77.7204 37.0922 77.8533 37.389C77.9863 37.6858 78.1965 37.93 78.484 38.1155C78.7715 38.301 79.1765 38.3937 79.699 38.3937C80.2215 38.3937 80.6234 38.301 80.9048 38.1155C81.1861 37.93 81.3963 37.6858 81.5355 37.389C81.6746 37.0922 81.755 36.7583 81.7828 36.3904C81.8106 36.0225 81.823 35.6638 81.823 35.3114V28.7633H84.9362V35.7442C84.9362 37.6177 84.5065 38.9873 83.6501 39.8499C82.7937 40.7124 81.4736 41.1422 79.6959 41.1422C77.9183 41.1422 76.5981 40.7124 75.7356 39.8499C74.873 38.9873 74.4402 37.6208 74.4402 35.7442V28.7633H77.572H77.5751Z" fill="white"/>
<path d="M89.0602 28.7633H93.7255C94.8323 28.7633 95.6732 29.0292 96.2482 29.561C96.8233 30.0927 97.1108 30.8595 97.1108 31.8611C97.1108 32.4671 97.0026 32.971 96.7831 33.3699C96.5636 33.7687 96.2328 34.1057 95.7845 34.3839C96.2328 34.4705 96.613 34.6003 96.9253 34.7765C97.2376 34.9528 97.4942 35.1692 97.692 35.4227C97.8899 35.6793 98.029 35.9668 98.1156 36.2852C98.199 36.6037 98.2423 36.9469 98.2423 37.3086C98.2423 37.8743 98.1434 38.3721 97.9455 38.8111C97.7477 39.247 97.4725 39.6149 97.1139 39.9117C96.7584 40.2085 96.3224 40.4342 95.8123 40.5826C95.3022 40.731 94.7272 40.8052 94.0872 40.8052H89.0571V28.7633H89.0602ZM92.192 33.4904H92.7671C93.7471 33.4904 94.2356 33.1009 94.2356 32.3249C94.2356 31.5489 93.7471 31.1593 92.7671 31.1593H92.192V33.4904ZM92.192 38.3783H92.8784C93.6667 38.3783 94.2294 38.2763 94.5726 38.0753C94.9127 37.8743 95.0827 37.5466 95.0827 37.1014C95.0827 36.6562 94.9127 36.3285 94.5726 36.1276C94.2325 35.9266 93.6667 35.8246 92.8784 35.8246H92.192V38.3814V38.3783Z" fill="white"/>
<path d="M104.617 35.027L100.224 28.7664H103.962L106.197 32.0559L108.417 28.7664H112.155L107.746 35.027V40.8083H104.614V35.027H104.617Z" fill="white"/>
<path d="M117.985 33.7316L121.803 28.7633H125.668L120.891 34.4643L126.113 40.8052H122.057L117.985 35.5835V40.8052H114.854V28.7633H117.985V33.7316Z" fill="white"/>
<path d="M136.483 38.7153H132.009L131.289 40.8083H127.95L132.535 28.7664H135.954L140.539 40.8083H137.2L136.483 38.7153ZM135.651 36.3347L134.244 32.3249L132.838 36.3347H135.648H135.651Z" fill="white"/>
<path d="M146.638 28.7633V40.8052H143.507V28.7633H146.638Z" fill="white"/>
<path d="M156.621 34.0685H162.836C162.836 34.7085 162.808 35.2866 162.755 35.8091C162.703 36.3316 162.594 36.8139 162.437 37.2622C162.214 37.8898 161.908 38.4463 161.525 38.9317C161.141 39.4171 160.69 39.8221 160.174 40.1467C159.657 40.4713 159.092 40.7186 158.473 40.8887C157.855 41.0587 157.206 41.1453 156.526 41.1453C155.589 41.1453 154.736 40.9907 153.963 40.6815C153.19 40.3724 152.528 39.9395 151.975 39.38C151.421 38.8204 150.989 38.1495 150.682 37.3673C150.373 36.5851 150.219 35.7195 150.219 34.7734C150.219 33.8274 150.37 32.9772 150.673 32.195C150.976 31.4128 151.409 30.7451 151.969 30.1917C152.528 29.6383 153.202 29.2054 153.991 28.8994C154.779 28.5902 155.657 28.4356 156.625 28.4356C157.88 28.4356 158.983 28.7077 159.93 29.2487C160.879 29.7928 161.627 30.6338 162.18 31.7715L159.209 33.0019C158.931 32.3434 158.572 31.8673 158.13 31.5798C157.688 31.2923 157.184 31.1501 156.621 31.1501C156.152 31.1501 155.728 31.2366 155.345 31.4128C154.961 31.5891 154.634 31.8395 154.362 32.1641C154.089 32.4887 153.876 32.8814 153.722 33.3389C153.567 33.7965 153.49 34.3066 153.49 34.8724C153.49 35.3825 153.555 35.8586 153.691 36.2945C153.824 36.7304 154.025 37.1076 154.29 37.4291C154.556 37.7476 154.887 37.9949 155.28 38.1711C155.672 38.3474 156.13 38.4339 156.652 38.4339C156.962 38.4339 157.258 38.3999 157.546 38.3319C157.833 38.2639 158.09 38.1495 158.322 37.998C158.551 37.8434 158.739 37.6425 158.888 37.3982C159.036 37.154 159.138 36.8541 159.191 36.5047H156.618V34.0778L156.621 34.0685Z" fill="white"/>
<path d="M169.544 28.7633V40.8052H166.413V28.7633H169.544Z" fill="white"/>
<path d="M178.792 34.7704C178.792 33.812 178.915 32.9401 179.166 32.1579C179.416 31.3758 179.768 30.708 180.22 30.1546C180.671 29.6012 181.209 29.1714 181.834 28.8685C182.458 28.5655 183.145 28.414 183.902 28.414C184.659 28.414 185.333 28.5655 185.964 28.8685C186.592 29.1714 187.13 29.6012 187.578 30.1546C188.026 30.708 188.372 31.3758 188.623 32.1579C188.873 32.9401 188.997 33.812 188.997 34.7704C188.997 35.7288 188.87 36.6006 188.623 37.3828C188.372 38.1649 188.023 38.8358 187.578 39.3954C187.133 39.955 186.592 40.3847 185.964 40.6877C185.336 40.9907 184.65 41.1422 183.902 41.1422C183.154 41.1422 182.455 40.9907 181.834 40.6877C181.212 40.3847 180.674 39.9519 180.22 39.3954C179.768 38.8358 179.416 38.1649 179.166 37.3828C178.915 36.6006 178.792 35.7288 178.792 34.7704ZM181.889 34.7704C181.889 35.3021 181.939 35.7875 182.032 36.2234C182.127 36.6593 182.263 37.0365 182.44 37.358C182.616 37.6765 182.826 37.9238 183.07 38.1C183.315 38.2762 183.593 38.3628 183.902 38.3628C184.211 38.3628 184.474 38.2762 184.724 38.1C184.975 37.9238 185.185 37.6765 185.355 37.358C185.525 37.0396 185.658 36.6593 185.754 36.2234C185.85 35.7875 185.896 35.3021 185.896 34.7704C185.896 34.2386 185.847 33.7656 185.754 33.3235C185.658 32.8814 185.525 32.5042 185.355 32.1889C185.185 31.8735 184.975 31.6293 184.724 31.453C184.474 31.2768 184.199 31.1903 183.902 31.1903C183.605 31.1903 183.318 31.2768 183.07 31.453C182.826 31.6293 182.616 31.8735 182.44 32.1889C182.263 32.5042 182.127 32.8814 182.032 33.3235C181.936 33.7656 181.889 34.2479 181.889 34.7704Z" fill="white"/>
<path d="M193.183 34.4519C191.928 33.9294 191.297 33.0452 191.297 31.7993C191.297 31.2892 191.399 30.8285 191.6 30.4174C191.801 30.0062 192.082 29.6537 192.438 29.3538C192.793 29.057 193.226 28.8283 193.73 28.6675C194.234 28.5067 194.794 28.4294 195.4 28.4294C196.006 28.4294 196.562 28.5098 197.069 28.6675C197.573 28.8283 198.006 29.057 198.361 29.3538C198.717 29.6506 198.998 30.0062 199.199 30.4174C199.4 30.8285 199.502 31.2892 199.502 31.7993C199.502 32.1177 199.471 32.4053 199.406 32.6526C199.341 32.903 199.233 33.1318 199.079 33.3389C198.924 33.5461 198.723 33.7409 198.473 33.9233C198.222 34.1057 197.91 34.2788 197.539 34.4488C199.178 35.0888 200 36.1214 200 37.5466C200 38.0567 199.886 38.5329 199.657 38.9688C199.428 39.4047 199.11 39.7819 198.698 40.1034C198.287 40.4218 197.805 40.6723 197.245 40.8547C196.686 41.034 196.071 41.1267 195.4 41.1267C194.729 41.1267 194.144 41.0402 193.588 40.8639C193.028 40.6877 192.543 40.4404 192.126 40.1219C191.711 39.8035 191.387 39.4263 191.152 38.9873C190.917 38.5514 190.799 38.0722 190.799 37.5497C190.799 36.0905 191.594 35.0579 193.18 34.4519H193.183ZM193.965 37.1664C193.965 37.3673 194.002 37.559 194.076 37.7414C194.151 37.9238 194.253 38.0784 194.379 38.2113C194.506 38.3443 194.658 38.4525 194.834 38.5298C195.01 38.6101 195.199 38.6503 195.4 38.6503C195.591 38.6503 195.774 38.6101 195.95 38.5298C196.126 38.4494 196.281 38.3443 196.414 38.2113C196.547 38.0784 196.652 37.9238 196.726 37.7476C196.8 37.5714 196.837 37.3828 196.837 37.1818C196.837 36.7768 196.695 36.4336 196.414 36.1523C196.132 35.871 195.792 35.7288 195.4 35.7288C195.007 35.7288 194.655 35.871 194.376 36.1523C194.098 36.4336 193.962 36.7737 193.962 37.1664H193.965ZM194.076 31.8302C194.076 32.2043 194.203 32.5197 194.46 32.7794C194.716 33.039 195.029 33.172 195.403 33.172C195.594 33.172 195.771 33.1349 195.931 33.0607C196.092 32.9865 196.228 32.8876 196.346 32.7639C196.463 32.6402 196.556 32.5011 196.624 32.3403C196.692 32.1796 196.729 32.0157 196.729 31.8457C196.729 31.484 196.602 31.1717 196.346 30.912C196.089 30.6523 195.777 30.5194 195.403 30.5194C195.029 30.5194 194.716 30.6461 194.46 30.9027C194.203 31.1593 194.076 31.4685 194.076 31.8302Z" fill="white"/>
<path d="M11.6268 11.9472C11.0024 10.1752 14.0136 8.06752 18.4299 6.21941C22.5711 4.48449 26.6557 3.9927 27.528 5.96571C28.4003 7.93872 22.251 14.8803 21.2109 15.5048C22.6296 14.652 29.4776 13.1064 33.006 16.2581C36.1811 19.0937 34.8248 22.8173 31.5306 25.7426C28.2364 28.668 22.1339 32.6081 18.7305 30.1629C15.8324 28.0806 17.8152 24.3219 22.7643 22.868C26.683 21.7146 29.8464 22.6572 29.8464 22.6572C29.8464 22.6572 30.4416 19.1776 27.7505 17.9208C25.3793 16.8143 19.1969 18.8283 17.4522 21.3653C15.7075 23.9023 12.6416 25.5455 12.2455 22.4894C11.8493 19.4333 16.3827 17.0758 18.1606 15.4034C19.9385 13.7328 21.4704 11.0709 21.4704 11.0709C21.4704 11.0709 12.9597 15.7254 11.6288 11.9472H11.6268ZM28.3593 24.761C28.3593 24.761 21.0801 24.5151 21.6929 27.1126C22.1398 29.0134 26.7337 26.8374 28.3593 24.761Z" fill="white"/>
<path d="M21.3024 31.0274C20.2837 31.0274 19.4055 30.7639 18.6737 30.239C17.616 29.4779 17.1378 28.4436 17.3291 27.3234C17.6511 25.4284 19.7744 23.6408 22.7368 22.7704C26.234 21.742 29.1691 22.3801 29.7643 22.5304C29.8346 21.943 30.0395 19.0937 27.7093 18.0048C25.3265 16.8924 19.2397 18.9337 17.5321 21.4161C16.445 22.9968 14.5969 24.5093 13.3109 24.199C12.8659 24.0916 12.3039 23.7091 12.1478 22.4953C11.8394 20.1144 14.3998 18.1863 16.4568 16.6367C17.0812 16.1664 17.6706 15.7215 18.0921 15.3253C19.4934 14.01 20.754 12.0506 21.2068 11.3129C20.6818 11.5823 19.5421 12.1404 18.2346 12.6244C15.8147 13.5182 13.9959 13.7446 12.8288 13.2977C12.1946 13.0557 11.7594 12.6107 11.5369 11.9745C10.7407 9.71463 15.4907 7.3396 18.3946 6.12379C22.3055 4.48645 26.675 3.7878 27.6196 5.92083C28.4119 7.7104 23.6482 13.3796 21.8215 15.1145C24.0365 14.2832 29.8287 13.282 33.0741 16.1801C34.2919 17.269 34.9105 18.5297 34.9086 19.9309C34.9066 21.8298 33.7298 23.9179 31.5988 25.8109C30.6425 26.6598 28.1074 28.7714 25.2133 30.0516C23.7438 30.7015 22.4382 31.0274 21.3063 31.0274H21.3024ZM26.7589 22.3918C25.627 22.3918 24.261 22.5265 22.7915 22.9578C19.8993 23.8086 17.8306 25.5358 17.5203 27.3565C17.3408 28.4143 17.7779 29.3549 18.7869 30.0809C22.1494 32.4989 28.3377 28.4436 31.4641 25.6685C33.5542 23.8126 34.7056 21.7771 34.7076 19.9348C34.7076 18.5922 34.1143 17.3803 32.9395 16.3303C29.415 13.1845 22.5417 14.8179 21.2595 15.5888L21.16 15.4209C22.124 14.8433 28.2772 7.90165 27.4381 6.0067C26.796 4.55671 23.775 4.08834 18.4668 6.31114C13.6348 8.33489 11.1759 10.3781 11.7184 11.9179C11.9214 12.4956 12.3195 12.9015 12.8971 13.124C15.5825 14.1524 21.3629 11.0202 21.4215 10.989L21.7259 10.8231L21.5522 11.1236C21.5366 11.151 19.9929 13.8168 18.2248 15.4775C17.7955 15.8815 17.2022 16.3284 16.5719 16.8026C14.554 18.3209 12.0443 20.212 12.339 22.4797C12.4541 23.3657 12.7957 23.8828 13.3558 24.0175C14.4096 24.2731 16.1348 23.108 17.3701 21.3126C19.1148 18.7737 25.348 16.6933 27.7913 17.835C30.5196 19.1093 29.9478 22.6397 29.9419 22.6768L29.9243 22.786L29.8189 22.7548C29.7994 22.749 28.5895 22.3996 26.7609 22.3996L26.7589 22.3918ZM22.8285 27.9401C22.6783 27.9401 22.5358 27.9264 22.405 27.8971C21.9718 27.8015 21.6908 27.538 21.5952 27.1341C21.4976 26.7242 21.5815 26.3535 21.8411 26.0373C23.0978 24.5034 28.1465 24.6576 28.3592 24.6634L28.5504 24.6693L28.4314 24.8195C27.278 26.291 24.4834 27.9381 22.8246 27.9381L22.8285 27.9401ZM27.8928 24.8527C26.5989 24.8527 22.9769 24.962 21.9952 26.1603C21.7727 26.4315 21.7044 26.736 21.7884 27.0892C21.8664 27.419 22.0889 27.6278 22.4499 27.7059C23.7692 27.9967 26.7785 26.4725 28.1582 24.8527C28.086 24.8527 27.9982 24.8527 27.8947 24.8527H27.8928Z" fill="white"/>
<path d="M28.6893 29.675C28.5078 28.949 29.8133 28.9256 32.4343 28.7382C34.1262 28.6172 36.4408 27.9069 36.7413 29.1129C37.0419 30.319 34.8229 31.5172 33.1837 32.8579C31.1248 34.5441 31.2868 36.7766 32.7485 37.7504C34.1184 38.6618 36.7413 38.4745 37.8634 35.2915C38.8314 32.5496 39.7369 31.7338 40.6717 31.9212C41.6065 32.1085 41.2338 33.2326 41.2338 34.7295C41.2338 36.2263 41.4211 37.3504 41.7958 37.9124C42.1705 38.4745 41.6085 39.0365 40.4844 38.0998C39.1573 36.9952 39.3603 35.6662 39.3603 35.6662C39.3603 35.6662 38.7982 40.1606 34.6785 40.5353C31.6946 40.8066 28.3126 38.6618 28.8727 35.1042C29.2572 32.6706 31.1189 31.7338 32.0557 30.9845C30.9316 31.1718 28.8727 30.4224 28.6854 29.673L28.6893 29.675Z" fill="white"/>
<path d="M34.1575 40.6563C32.5475 40.6563 30.9589 40.0045 29.9168 38.8901C29.2396 38.1661 28.4922 36.9191 28.781 35.0905C29.1108 33.0004 30.4925 32.0051 31.5015 31.2791C31.5815 31.2225 31.6595 31.1659 31.7337 31.1113C30.5472 31.1328 28.7849 30.4517 28.5956 29.6984C28.5546 29.5384 28.5781 29.3978 28.662 29.2827C28.9527 28.8826 29.9636 28.8124 31.7961 28.6855L32.4284 28.6406C32.8226 28.6133 33.2598 28.5509 33.6833 28.4904C35.1099 28.2894 36.5852 28.0806 36.837 29.0876C37.0868 30.0945 35.8202 31.0196 34.4776 31.9992C34.0638 32.3017 33.6364 32.614 33.2461 32.9321C32.2274 33.7654 31.6947 34.7841 31.7454 35.7989C31.7825 36.5639 32.1689 37.245 32.8051 37.6665C33.5154 38.1388 34.4912 38.2559 35.3479 37.969C36.1071 37.7153 37.1453 37.0401 37.7737 35.2564C38.6773 32.696 39.6043 31.605 40.6932 31.8217C41.4875 31.9797 41.4367 32.7486 41.3743 33.7205C41.3548 34.023 41.3333 34.3684 41.3333 34.7275C41.3333 36.2399 41.5226 37.3211 41.8778 37.8558C42.0554 38.1232 42.0534 38.412 41.8719 38.574C41.6475 38.775 41.1499 38.775 40.4239 38.172C39.6862 37.5572 39.4052 36.8781 39.3057 36.3805C38.9466 37.6802 37.8303 40.344 34.6903 40.629C34.5127 40.6446 34.3351 40.6524 34.1575 40.6524V40.6563ZM32.4128 30.8264L32.1201 31.0606C31.9698 31.1796 31.7981 31.3045 31.6146 31.4372C30.633 32.1437 29.2904 33.1097 28.9723 35.1198C28.6951 36.8703 29.4094 38.0646 30.0593 38.7555C31.1599 39.9323 32.9729 40.5919 34.6727 40.4377C38.568 40.0845 39.2296 35.9062 39.2647 35.6642C39.2647 35.6584 39.2647 35.6525 39.2647 35.6506L39.4579 35.6779C39.4579 35.6779 39.4579 35.6799 39.4579 35.6838C39.4481 35.7599 39.3154 36.9991 40.5488 38.0256C41.1382 38.5174 41.5734 38.5857 41.7412 38.4335C41.8485 38.3379 41.8368 38.1505 41.7158 37.9671C41.3372 37.3992 41.1382 36.2809 41.1382 34.7295C41.1382 34.3645 41.1596 34.0171 41.1811 33.7108C41.2474 32.6803 41.2533 32.1359 40.6561 32.0168C39.6804 31.8217 38.8236 32.8735 37.9591 35.3247C37.3034 37.1806 36.2105 37.891 35.4104 38.1564C34.4971 38.4608 33.4569 38.3359 32.6978 37.8305C32.0108 37.3738 31.5932 36.6361 31.5522 35.8087C31.4995 34.7295 32.0576 33.6542 33.1251 32.7799C33.5194 32.4559 33.9506 32.1437 34.3663 31.8392C35.6543 30.9005 36.8701 30.0126 36.6516 29.1324C36.4447 28.2952 35.0572 28.4904 33.7145 28.6797C33.2871 28.7402 32.8461 28.8026 32.446 28.8299L31.8137 28.8748C30.1549 28.99 29.0601 29.0641 28.8239 29.392C28.7752 29.4603 28.7634 29.5423 28.7888 29.6457C28.9567 30.317 30.9375 31.0684 32.0479 30.883L32.4167 30.8205L32.4128 30.8264Z" fill="white"/>
<path d="M42.7873 35.7033C42.6234 34.7197 42.5434 33.2521 42.9474 32.6862C43.3513 32.1202 44.6433 33.0609 44.2686 34.706C43.8919 36.3512 42.9766 36.8352 42.7873 35.7033Z" fill="white"/>
<path d="M43.2302 36.4156C43.2302 36.4156 43.2224 36.4156 43.2185 36.4156C43.0643 36.4117 42.7911 36.3141 42.6916 35.7189C42.514 34.6573 42.4535 33.2092 42.8691 32.6277C43.0194 32.4169 43.2868 32.3642 43.5678 32.4891C44.1416 32.7467 44.6158 33.619 44.364 34.7256C44.1357 35.7228 43.6712 36.4156 43.2302 36.4156ZM43.2712 32.6179C43.1853 32.6179 43.0936 32.6472 43.0272 32.7428C42.672 33.2424 42.6974 34.5811 42.8828 35.6877C42.9394 36.0214 43.0623 36.2165 43.2224 36.2204C43.2243 36.2204 43.2263 36.2204 43.2282 36.2204C43.5171 36.2204 43.9425 35.6857 44.1708 34.6826C44.4148 33.6151 43.9171 32.8618 43.4858 32.6686C43.439 32.6472 43.357 32.6179 43.2692 32.6179H43.2712Z" fill="white"/>
<path d="M44.969 35.8379C44.8051 34.8544 44.725 33.3868 45.129 32.8209C45.533 32.2549 46.6102 32.8209 46.2336 34.4641C45.8569 36.1092 45.0217 36.1619 44.967 35.8379H44.969Z" fill="white"/>
<path d="M45.1836 36.0916C45.1836 36.0916 45.1758 36.0916 45.1719 36.0916C45.0138 36.0877 44.8947 35.9941 44.8713 35.8535C44.6937 34.7919 44.6352 33.3439 45.0489 32.7623C45.2226 32.5184 45.5153 32.4423 45.7944 32.5672C46.2335 32.7643 46.5692 33.4336 46.3291 34.4836C46.0383 35.754 45.4783 36.0897 45.1836 36.0897V36.0916ZM45.0645 35.8204C45.0762 35.8848 45.1465 35.8945 45.1777 35.8945C45.3943 35.9062 45.8725 35.6057 46.1398 34.4387C46.3545 33.4961 46.0813 32.9087 45.7163 32.7428C45.5231 32.6569 45.3299 32.7057 45.2089 32.8735C44.8538 33.3712 44.8811 34.7119 45.0645 35.8184V35.8204Z" fill="white"/>
<path d="M19.109 40.0689C18.5977 40.7129 17.741 44.3271 19.3725 45.9859C21.0039 47.6448 23.4863 46.4953 23.7068 45.3517C23.8747 44.4715 23.6171 44.0617 24.8563 42.7776C25.1588 42.4634 26.1755 41.4857 26.4526 41.2769C26.2497 42.7893 26.7122 44.817 27.9807 44.5594C29.2511 44.2998 29.46 41.7491 28.3691 39.8601C27.7524 38.7906 26.6088 38.4179 26.2419 38.5506C25.3227 38.8804 26.4214 40.4104 25.7462 41.2164C24.0035 43.2928 24.1479 44.2764 22.9809 44.4891C21.8138 44.7018 20.6819 43.8607 20.7737 42.3775C20.8634 40.8944 20.2565 38.6228 19.109 40.0728V40.0689Z" fill="white"/>
<path d="M21.3183 46.9168C20.5669 46.9168 19.8605 46.6202 19.3043 46.0542C17.6201 44.3408 18.5432 40.6251 19.033 40.0084C19.3687 39.5849 19.6926 39.4268 19.9951 39.5439C20.6626 39.7996 20.9338 41.3569 20.8714 42.3814C20.8304 43.043 21.0431 43.6129 21.4685 43.9915C21.8667 44.3447 22.4131 44.4911 22.9654 44.3915C23.6094 44.2744 23.8221 43.9153 24.2475 43.1972C24.5442 42.6976 24.9501 42.0145 25.6741 41.152C25.9668 40.8026 25.8927 40.2913 25.8205 39.7956C25.7385 39.2356 25.6546 38.6559 26.2108 38.4569C26.6284 38.3066 27.8247 38.7184 28.457 39.8113C29.1986 41.0934 29.3937 42.7835 28.9215 43.8314C28.7146 44.29 28.3985 44.575 28.0042 44.655C27.6432 44.7291 27.3232 44.6374 27.0538 44.3857C26.4508 43.8217 26.244 42.559 26.3337 41.5071C25.9434 41.8506 25.1979 42.5668 24.9306 42.8459C23.9763 43.8334 23.9314 44.2842 23.8748 44.854C23.8592 45.0141 23.8416 45.1799 23.8065 45.3712C23.6952 45.9528 23.0395 46.5324 22.2121 46.7841C21.9115 46.8758 21.613 46.9188 21.3222 46.9188L21.3183 46.9168ZM19.8019 39.702C19.6185 39.702 19.4116 39.8444 19.1852 40.1294C18.7169 40.7207 17.8309 44.2783 19.4428 45.9176C20.4674 46.9597 21.6793 46.7392 22.1516 46.5948C22.9127 46.3645 23.5118 45.8454 23.6094 45.3322C23.6445 45.1507 23.6601 44.9887 23.6757 44.8326C23.6972 44.6179 23.7167 44.4149 23.7831 44.1944C23.5821 44.3896 23.342 44.5203 22.9966 44.5828C22.3858 44.694 21.7788 44.5301 21.3358 44.1359C20.8655 43.7182 20.6313 43.0898 20.6743 42.3697C20.7406 41.2827 20.4342 39.9225 19.9229 39.7273C19.8819 39.7117 19.841 39.7039 19.798 39.7039L19.8019 39.702ZM26.5816 41.0583L26.5503 41.2886C26.4137 42.3053 26.5894 43.6851 27.1846 44.2413C27.4051 44.4481 27.6666 44.5223 27.9633 44.4618C28.2931 44.3954 28.5624 44.1476 28.7419 43.7495C29.1888 42.7542 28.9976 41.1383 28.2872 39.9069C27.6959 38.8823 26.6011 38.5232 26.2771 38.6403C25.8907 38.7789 25.9239 39.1594 26.0137 39.7664C26.0878 40.2796 26.1737 40.8592 25.8244 41.2769C25.3443 41.8487 25.0047 42.3424 24.7452 42.7542C24.7588 42.7386 24.7744 42.7249 24.7881 42.7093C25.0847 42.4029 26.1073 41.4154 26.3962 41.1988L26.5816 41.0583Z" fill="white"/>
<path d="M3.53384 38.1642C3.36211 38.1642 3.19427 38.0724 3.10646 37.9105L3.02644 37.7661C1.43984 34.9305 0.466022 31.8919 0.130357 28.7363C-0.217017 25.4616 0.130357 22.2162 1.16662 19.0293C1.44765 18.0145 1.79307 17.0075 2.19704 16.0142C5.10874 8.87546 10.7916 3.50482 17.7898 1.27616C25.4145 -1.15155 31.8351 0.33552 35.8787 2.01189C40.2599 3.82682 42.8066 6.18819 42.912 6.28772C43.0994 6.46336 43.1189 6.75218 42.9569 6.95124C42.7949 7.1503 42.5081 7.19128 42.2992 7.04491C37.2155 3.49701 30.3929 1.58255 24.0504 1.92407C18.8183 2.20509 11.4551 4.11565 6.08255 11.6213C4.27348 14.1485 2.94057 16.7285 2.09165 19.3455C0.399669 25.4889 1.03977 31.9427 3.96318 37.4519C4.08808 37.688 4.00026 37.9827 3.76412 38.1095C3.68997 38.1486 3.6119 38.1681 3.53384 38.1681V38.1642Z" fill="white"/>
<path d="M27.1182 52.0357C21.2109 52.0357 16.3321 50.1369 14.564 49.1221C14.3474 48.9972 14.2576 48.7259 14.3591 48.4976C14.4586 48.2731 14.7162 48.1561 14.9523 48.2283C28.4082 52.2816 37.6585 50.2598 44.9416 41.673C52.8766 32.3174 50.1484 18.9825 50.121 18.8498C50.0683 18.6019 50.2147 18.3541 50.4567 18.2819C50.6987 18.2077 50.9582 18.3326 51.0519 18.5668C52.5097 22.2142 52.6014 34.868 46.1457 42.8342C41.304 48.8098 34.7819 51.9908 27.2822 52.0357C27.2275 52.0357 27.1729 52.0357 27.1182 52.0357Z" fill="white"/>
<path d="M47.461 14.1856C46.1457 14.0705 45.1719 12.9112 45.2851 11.5959C45.4002 10.2806 46.5594 9.30675 47.8748 9.41994C49.1901 9.53508 50.1639 10.6943 50.0507 12.0096C49.9375 13.325 48.7764 14.2988 47.461 14.1856ZM47.7128 13.0088L48.2124 12.4507L48.8486 12.0545C48.9364 11.9804 48.9481 11.8477 48.874 11.7598L48.3158 11.2602L47.9196 10.624C47.8455 10.5362 47.7128 10.5245 47.625 10.5987L47.1254 11.1568L46.4892 11.553C46.4014 11.6271 46.3896 11.7598 46.4638 11.8477L47.0219 12.3472L47.4181 12.9834C47.4923 13.0713 47.625 13.083 47.7128 13.0088Z" fill="white"/>
<path d="M8.27232 45.8415C6.95698 45.7264 5.98316 44.5672 6.09635 43.2518C6.21149 41.9365 7.37071 40.9627 8.68604 41.0759C10.0014 41.191 10.9752 42.3502 10.862 43.6656C10.7469 44.9809 9.58765 45.9547 8.27232 45.8415ZM8.52407 44.6648L9.02366 44.1066L9.65986 43.7104C9.74768 43.6363 9.75939 43.5036 9.68523 43.4158L9.12709 42.9162L8.73093 42.28C8.65677 42.1921 8.52407 42.1804 8.43625 42.2546L7.93665 42.8127L7.30045 43.2089C7.21263 43.2831 7.20092 43.4158 7.27508 43.5036L7.83322 44.0032L8.22938 44.6394C8.30354 44.7272 8.43625 44.7389 8.52407 44.6648Z" fill="white"/>
</svg>
